# xmcd CD database file
#
# Track frame offsets:
#	150
#	21315
#	32975
#	51268
#	69188
#	93280
#	111993
#	129348
#	144768
#	167023
#	194488
#	215778
#	243053
#
# Disc length: 3411 seconds
#
# Revision: 0
# Processed by: cddbd v1.4PL0 Copyright (c) Steve Scherf et al.
# Submitted via: CDex 1.50beta10
#
DISCID=b40d510d
DTITLE=Oliver Nelson - Black, brown and beautiful (Three shades of blue (1-9;13) - (Oily Rags) (10-11) - (Skull session) (12))
DYEAR=1970
DGENRE=Jazz
TTITLE0=Empty ballroom blues
TTITLE1=Duke's place
TTITLE2=Echoes of Harlem
TTITLE3=Disillusion blues
TTITLE4=Yearning
TTITLE5=Welcome to New York
TTITLE6=Black, brown and beautiful
TTITLE7=Rockin' in rythm
TTITLE8=Creole love call
TTITLE9=Meditation
TTITLE10=Mailman bring me no more blues
TTITLE11=Skull session
TTITLE12=It's glory
EXTD=YEAR: 1970
EXTT0=
EXTT1=
EXTT2=
EXTT3=
EXTT4=
EXTT5=
EXTT6=
EXTT7=
EXTT8=
EXTT9=
EXTT10=
EXTT11=
EXTT12=
PLAYORDER=
